<?xml version="1.0" encoding="UTF-8" standalone="no"?>
<!-- Generator: Adobe Illustrator 16.0.1, SVG Export Plug-In . SVG Version: 6.00 Build 0)  -->

<svg
   xmlns:dc="http://purl.org/dc/elements/1.1/"
   xmlns:cc="http://creativecommons.org/ns#"
   xmlns:rdf="http://www.w3.org/1999/02/22-rdf-syntax-ns#"
   xmlns:svg="http://www.w3.org/2000/svg"
   xmlns="http://www.w3.org/2000/svg"
   xmlns:sodipodi="http://sodipodi.sourceforge.net/DTD/sodipodi-0.dtd"
   xmlns:inkscape="http://www.inkscape.org/namespaces/inkscape"
   version="1.1"
   id="Layer_1"
   x="0px"
   y="0px"
   width="612px"
   height="792px"
   viewBox="0 0 612 792"
   enable-background="new 0 0 612 792"
   xml:space="preserve"
   sodipodi:docname="coreos-wordmark-vert-color.svg"
   inkscape:version="0.92.2 2405546, 2018-03-11"
   inkscape:export-filename="/home/sambros/Mo/fedora_coreos-wordmark-vert-color.png"
   inkscape:export-xdpi="96"
   inkscape:export-ydpi="96"><metadata
   id="metadata29"><rdf:RDF><cc:Work
       rdf:about=""><dc:format>image/svg+xml</dc:format><dc:type
         rdf:resource="http://purl.org/dc/dcmitype/StillImage" /></cc:Work></rdf:RDF></metadata><defs
   id="defs27" /><sodipodi:namedview
   pagecolor="#ffffff"
   bordercolor="#666666"
   borderopacity="1"
   objecttolerance="10"
   gridtolerance="10"
   guidetolerance="10"
   inkscape:pageopacity="0"
   inkscape:pageshadow="2"
   inkscape:window-width="1920"
   inkscape:window-height="1016"
   id="namedview25"
   showgrid="false"
   inkscape:zoom="0.42140707"
   inkscape:cx="-871.87812"
   inkscape:cy="128.09063"
   inkscape:window-x="0"
   inkscape:window-y="27"
   inkscape:window-maximized="1"
   inkscape:current-layer="g96058" />
<g
   id="g8"
   transform="matrix(0.92912635,0,0,0.92912635,21.770508,13.263443)">
	
	
	<g
   id="g96058"
   transform="matrix(0.76851367,0,0,0.76851367,71.106466,69.450297)"><path
     inkscape:connector-curvature="0"
     style="fill:#3c6eb4;fill-opacity:1"
     id="path2"
     d="m 307.188,53.565 c -135.917,0 -246.469,110.559 -246.469,246.455 0,135.895 110.553,246.453 246.469,246.453 135.876,0 246.44,-110.559 246.44,-246.453 C 553.629,164.124 443.064,53.565 307.188,53.565 Z" /><path
     inkscape:connector-curvature="0"
     style="fill:#de4284;fill-opacity:1"
     id="path4"
     d="m 307.188,76.184 c -39.632,0 -73.248,63.391 -85.388,151.506 -0.39,2.835 -0.762,5.696 -1.098,8.59 -1.656,13.867 -2.779,28.287 -3.341,43.129 -0.269,6.792 -0.401,13.659 -0.401,20.611 0,6.945 0.132,13.819 0.401,20.604 0.562,14.842 1.685,29.263 3.341,43.135 18.587,2.4 38.455,4.039 59.179,4.813 8.959,0.334 18.051,0.535 27.306,0.535 9.226,0 18.343,-0.201 27.277,-0.535 20.75,-0.775 40.606,-2.414 59.204,-4.813 2.046,-0.267 4.066,-0.554 6.098,-0.842 C 477.17,352.041 531.014,327.979 531.014,300.021 531.016,176.392 430.789,76.184 307.188,76.184 Z" /><path
     style="fill:#ffffff"
     inkscape:connector-curvature="0"
     id="path6"
     d="m 399.768,237.116 c -2.246,-3.276 -4.653,-6.412 -7.221,-9.426 -20.538,-24.208 -51.131,-39.592 -85.358,-39.592 -11.1,0 -20.979,16.988 -27.306,43.363 -2.513,10.516 -4.464,22.517 -5.722,35.541 -0.988,10.436 -1.524,21.534 -1.524,33.02 0,11.486 0.536,22.583 1.524,33.013 10.444,0.989 21.527,1.524 33.028,1.524 11.483,0 22.569,-0.536 33.013,-1.524 22.957,-2.18 42.773,-6.593 56.812,-12.41 13.865,-5.742 22.074,-12.876 22.074,-20.604 0,-23.32 -7.126,-44.974 -19.32,-62.905 z" /></g>
</g>

<g
   transform="matrix(2.9941148,0,0,2.9941148,-809.93208,936.3962)"
   id="g96053"><text
   xml:space="preserve"
   style="font-style:normal;font-variant:normal;font-weight:normal;font-stretch:normal;font-size:37.60481262px;line-height:1.25;font-family:'open sans';-inkscape-font-specification:'open sans, Normal';font-variant-ligatures:normal;font-variant-caps:normal;font-variant-numeric:normal;font-feature-settings:normal;text-align:center;letter-spacing:0px;word-spacing:0px;writing-mode:lr-tb;text-anchor:middle;fill:#294172;fill-opacity:1;stroke:none;stroke-width:2.35030079"
   x="374.26367"
   y="-72.746986"
   id="text96033"><tspan
     sodipodi:role="line"
     id="tspan96031"
     x="374.26367"
     y="-72.746986"
     style="font-style:normal;font-variant:normal;font-weight:600;font-stretch:normal;font-family:Montserrat;-inkscape-font-specification:'Montserrat Semi-Bold';fill:#294172;fill-opacity:1;stroke-width:2.35030079">CORE<tspan
   style="-inkscape-font-specification:'Montserrat Medium';font-family:Montserrat;font-weight:500;font-style:normal;font-stretch:normal;font-variant:normal"
   id="tspan95134">OS</tspan></tspan></text>


<g
   id="g96051"
   transform="matrix(0.1178973,0,0,0.1178973,220.37433,-86.970772)"><g
     transform="translate(517.94331,-482.45582)"
     id="g96049"><path
       style="font-style:normal;font-variant:normal;font-weight:bold;font-stretch:expanded;font-size:11.72808552px;line-height:89.99999762%;font-family:Comfortaa;-inkscape-font-specification:'Comfortaa Bold Expanded';text-align:start;writing-mode:lr-tb;text-anchor:start;fill:#3c6eb4;fill-opacity:1;stroke:none"
       id="path96035"
       d="m 703.99523,303.93739 v 4.61564 c 0,0.30924 -0.18707,0.49631 -0.5612,0.56121 h -0.0401 c -0.31687,0 -0.51158,-0.19661 -0.58411,-0.58984 v -7.3186 c 0.0458,-0.42376 0.22524,-0.63564 0.5383,-0.63565 h 0.0859 c 0.31687,10e-6 0.52875,0.22525 0.63565,0.67574 l 2.62851,5.87549 c 0.0344,-0.13362 0.61083,-1.47555 1.72944,-4.0258 l 1.0766,-2.31927 c 0.12979,-0.13743 0.27105,-0.20615 0.42377,-0.20616 h 0.0859 c 0.31304,10e-6 0.49248,0.21189 0.5383,0.63565 v 7.3186 c -0.0725,0.39323 -0.26725,0.58984 -0.58412,0.58984 h -0.0401 c -0.37415,-0.0649 -0.56122,-0.25197 -0.56121,-0.56121 v -4.62136 c -1.4202,3.21453 -2.16275,4.87334 -2.22765,4.97641 -0.15653,0.13744 -0.30924,0.20616 -0.45813,0.20616 -0.33596,0 -0.61275,-0.33978 -0.83036,-1.01933 l -1.85542,-4.15752 m -7.79387,-3.39015 h 5.3601 c 0.36268,0.0687 0.54402,0.2558 0.54402,0.56121 v 0.0859 c 0,0.31306 -0.21189,0.49249 -0.63565,0.5383 h -1.99286 v 6.82038 c 0,0.30924 -0.19089,0.49631 -0.57266,0.56121 h -0.0286 c -0.31688,0 -0.51158,-0.19661 -0.58411,-0.58984 v -6.79175 h -2.03867 c -0.39323,-0.0763 -0.58985,-0.28251 -0.58985,-0.61847 0.084,-0.37795 0.26343,-0.56693 0.53831,-0.56694"
       inkscape:connector-curvature="0" /><path
       style="fill:#3c6eb4;fill-opacity:1"
       id="path96037"
       d="m 264.95202,271.6315 c 0,0 0,0 -67.46881,0 1.09192,14.6258 12.88236,25.54501 28.60199,25.54501 11.1351,0 20.74362,-4.5855 28.38515,-12.0073 1.52946,-1.53425 3.27576,-1.96987 5.23988,-1.96987 2.62042,0 5.24179,1.31261 6.98714,3.49645 1.09288,1.5285 1.74823,3.27576 1.74823,5.02015 0,2.40261 -1.09288,5.02111 -3.05892,6.9881 -9.17098,9.82345 -24.67281,16.37498 -39.95874,16.37498 -27.72884,0 -49.99904,-22.2702 -49.99904,-50.00096 0,-27.72788 21.61581,-49.99904 49.34466,-49.99904 27.51199,0 48.03588,21.39704 48.03588,49.5615 0.002,4.15084 -3.70946,6.99098 -7.85742,6.99098 z m -40.1775,-38.64805 c -14.62867,0 -24.67185,9.6066 -26.85474,23.57609 32.96872,0 53.71138,0 53.71138,0 -1.96507,-13.31414 -12.44578,-23.57609 -26.85664,-23.57609 z"
       inkscape:connector-curvature="0" /><path
       style="fill:#3c6eb4;fill-opacity:1"
       id="path96039"
       d="m 457.74132,315.07998 c -27.72885,0 -49.99809,-22.2702 -49.99809,-50.00096 0,-27.72788 22.26924,-49.99904 49.99809,-49.99904 27.73172,0 50.00096,22.27116 50.00096,49.99904 9.5e-4,27.73076 -22.26828,50.00096 -50.00096,50.00096 z m 0,-81.00653 c -17.46594,0 -28.82173,13.97621 -28.82173,31.00461 0,17.0284 11.35579,31.00365 28.82173,31.00365 17.46785,0 28.8246,-13.97525 28.8246,-31.00365 0,-17.0284 -11.35675,-31.00461 -28.8246,-31.00461 z"
       inkscape:connector-curvature="0" /><path
       style="fill:#3c6eb4;fill-opacity:1"
       id="path96041"
       d="m 579.93667,215.07902 c -14.64978,0 -24.33986,4.33314 -32.89484,15.20917 l -0.78967,-5.05853 v 0 c -0.66398,-5.28113 -5.16888,-9.35905 -10.62272,-9.35905 -5.91729,0 -10.7158,4.79179 -10.7158,10.71196 0,0.008 0,0.0163 0,0.024 v 0 0.01 0 76.89119 c 0,5.89523 4.80234,10.69949 10.69853,10.69949 5.89522,0 10.69948,-4.80522 10.69948,-10.69949 v -41.26559 c 0,-18.77662 16.37497,-28.16734 33.62502,-28.16734 5.24084,0 9.38688,-4.36672 9.38688,-9.60756 0,-5.24083 -4.14604,-9.38783 -9.38688,-9.38783 z"
       inkscape:connector-curvature="0" /><path
       style="fill:#3c6eb4;fill-opacity:1"
       id="path96043"
       d="m 692.81904,265.07806 c 0.21972,-26.85473 -18.99732,-49.99904 -50.00192,-49.99904 -27.72981,0 -50.21973,22.27116 -50.21973,49.99904 0,27.73076 21.83458,50.00096 48.25561,50.00096 13.18557,0 25.05278,-6.78757 30.34734,-13.87833 l 2.60699,6.61677 v 0 c 1.39896,3.71713 4.98465,6.36346 9.19017,6.36346 5.42027,0 9.81482,-4.39071 9.82154,-9.80714 v 0 -25.64575 0 z m -50.00192,31.00461 c -17.46882,0 -28.82173,-13.97525 -28.82173,-31.00365 0,-17.0284 11.35291,-31.00461 28.82173,-31.00461 17.46689,0 28.82172,13.97621 28.82172,31.00461 0,17.0284 -11.35483,31.00365 -28.82172,31.00365 z"
       inkscape:connector-curvature="0" /><path
       style="fill:#3c6eb4;fill-opacity:1"
       id="path96045"
       d="m 390.57091,175.5559 c 0,-5.89331 -4.80234,-10.47976 -10.69661,-10.47976 -5.89522,0 -10.7014,4.58645 -10.7014,10.47976 v 56.33467 c -5.45672,-10.04318 -17.24717,-16.81155 -31.22241,-16.81155 -28.38419,0 -47.37958,21.39704 -47.37958,49.99904 0,28.60487 19.65074,50.00096 47.37958,50.00096 12.36903,0 23.09346,-5.10459 29.51641,-13.97812 l 2.37574,6.02475 c 1.47189,4.1374 5.41739,7.09653 10.05373,7.09653 5.86836,0 10.6755,-4.7774 10.6755,-10.66974 0,-0.0163 0,-0.0297 0,-0.0461 v 0 -127.95048 h -9.6e-4 z m -50.00096,120.52677 c -17.46594,0 -28.602,-13.97525 -28.602,-31.00365 0,-17.0284 11.1351,-31.00461 28.602,-31.00461 17.46881,0 28.60295,13.31894 28.60295,31.00461 0,17.68183 -11.13414,31.00365 -28.60295,31.00365 z"
       inkscape:connector-curvature="0" /><path
       style="fill:#3c6eb4;fill-opacity:1"
       id="path96047"
       d="m 167.85454,165.72285 c -1.95164,-0.28881 -3.9407,-0.43466 -5.91633,-0.43466 -22.11092,0 -40.10075,17.99079 -40.10075,40.10267 v 12.52639 h -13.10209 c -4.8033,0 -8.73537,3.9311 -8.73537,8.73249 0,4.80617 3.93207,9.64977 8.73537,9.64977 h 13.10113 v 67.20879 c 0,5.89523 4.80426,10.69949 10.69756,10.69949 5.89714,0 10.70044,-4.80522 10.70044,-10.69949 v -67.20879 h 14.48571 c 4.80234,0 8.73249,-4.8436 8.73249,-9.64977 0,-4.80139 -3.92919,-8.73249 -8.73249,-8.73249 h -14.47899 v -12.52639 c 0,-10.30992 8.38707,-20.08636 18.69699,-20.08636 0.9288,0 1.86432,0.0691 2.78161,0.20438 5.84821,0.86548 11.28766,-1.78277 12.15506,-7.63193 0.86356,-5.84629 -3.1731,-11.2867 -9.02034,-12.1541 z"
       inkscape:connector-curvature="0" /></g></g></g></svg>